REM DIRINDEX 1\2,1\3,1\4,1\5
REM DIRNAME "folder01","folder02","folder03","folder04","folder05"
TITLE ""
FILE "1Q_t_0859-0868.mp3" MP3
  TRACK 01 AUDIO
    TITLE "3:cjc172_3527"
    INDEX 01 00:00:00
  TRACK 02 AUDIO
    TITLE "0:"
    INDEX 01 00:01:14
  TRACK 03 AUDIO
    TITLE "4:cjc172_3528"
    INDEX 01 00:01:23
  TRACK 04 AUDIO
    TITLE "0:"
    INDEX 01 00:02:19
  TRACK 05 AUDIO
    TITLE "5:cjc172_3529"
    INDEX 01 00:02:25
  TRACK 06 AUDIO
    TITLE "0:"
    INDEX 01 00:07:63
  TRACK 07 AUDIO
    TITLE "3:cjc172_3530"
    INDEX 01 00:08:35
  TRACK 08 AUDIO
    TITLE "0:"
    INDEX 01 00:09:46
  TRACK 09 AUDIO
    TITLE "4:cjc172_3531"
    INDEX 01 00:09:56
  TRACK 10 AUDIO
    TITLE "0:"
    INDEX 01 00:12:00
  TRACK 11 AUDIO
    TITLE "5:cjc172_3532"
    INDEX 01 00:12:08
  TRACK 12 AUDIO
    TITLE "0:"
    INDEX 01 00:17:56
  TRACK 13 AUDIO
    TITLE "3:cjc172_3533"
    INDEX 01 00:18:26
  TRACK 14 AUDIO
    TITLE "0:"
    INDEX 01 00:19:45
  TRACK 15 AUDIO
    TITLE "4:cjc172_3534"
    INDEX 01 00:19:57
  TRACK 16 AUDIO
    TITLE "0:"
    INDEX 01 00:22:02
  TRACK 17 AUDIO
    TITLE "5:cjc172_3535"
    INDEX 01 00:22:08
  TRACK 18 AUDIO
    TITLE "0:"
    INDEX 01 00:28:09
  TRACK 19 AUDIO
    TITLE "3:cjc172_3536"
    INDEX 01 00:28:54
  TRACK 20 AUDIO
    TITLE "0:"
    INDEX 01 00:29:73
  TRACK 21 AUDIO
    TITLE "4:cjc172_3537"
    INDEX 01 00:30:11
  TRACK 22 AUDIO
    TITLE "0:"
    INDEX 01 00:32:04
  TRACK 23 AUDIO
    TITLE "5:cjc172_3538"
    INDEX 01 00:32:10
  TRACK 24 AUDIO
    TITLE "0:"
    INDEX 01 00:38:36
  TRACK 25 AUDIO
    TITLE "3:cjc172_3539"
    INDEX 01 00:39:08
  TRACK 26 AUDIO
    TITLE "0:"
    INDEX 01 00:40:12
  TRACK 27 AUDIO
    TITLE "4:cjc172_3540"
    INDEX 01 00:40:22
  TRACK 28 AUDIO
    TITLE "0:"
    INDEX 01 00:41:21
  TRACK 29 AUDIO
    TITLE "5:cjc172_3541"
    INDEX 01 00:41:27
  TRACK 30 AUDIO
    TITLE "0:"
    INDEX 01 00:47:39
  TRACK 31 AUDIO
    TITLE "3:cjc172_3542"
    INDEX 01 00:48:09
  TRACK 32 AUDIO
    TITLE "0:"
    INDEX 01 00:49:30
  TRACK 33 AUDIO
    TITLE "4:cjc172_3543"
    INDEX 01 00:49:40
  TRACK 34 AUDIO
    TITLE "0:"
    INDEX 01 00:50:55
  TRACK 35 AUDIO
    TITLE "5:cjc172_3544"
    INDEX 01 00:50:61
  TRACK 36 AUDIO
    TITLE "0:"
    INDEX 01 00:57:02
  TRACK 37 AUDIO
    TITLE "3:cjc172_3545"
    INDEX 01 00:57:47
  TRACK 38 AUDIO
    TITLE "0:"
    INDEX 01 00:58:53
  TRACK 39 AUDIO
    TITLE "4:cjc172_3546"
    INDEX 01 00:58:74
  TRACK 40 AUDIO
    TITLE "0:"
    INDEX 01 01:01:61
  TRACK 41 AUDIO
    TITLE "5:cjc172_3547"
    INDEX 01 01:01:67
  TRACK 42 AUDIO
    TITLE "0:"
    INDEX 01 01:08:20
  TRACK 43 AUDIO
    TITLE "3:cjc172_3548"
    INDEX 01 01:08:67
  TRACK 44 AUDIO
    TITLE "0:"
    INDEX 01 01:10:17
  TRACK 45 AUDIO
    TITLE "4:cjc172_3549"
    INDEX 01 01:10:31
  TRACK 46 AUDIO
    TITLE "0:"
    INDEX 01 01:11:52
  TRACK 47 AUDIO
    TITLE "5:cjc172_3550"
    INDEX 01 01:11:57
  TRACK 48 AUDIO
    TITLE "0:"
    INDEX 01 01:19:02
  TRACK 49 AUDIO
    TITLE "3:cjc172_3551"
    INDEX 01 01:19:47
  TRACK 50 AUDIO
    TITLE "0:"
    INDEX 01 01:20:66
  TRACK 51 AUDIO
    TITLE "4:cjc172_3552"
    INDEX 01 01:21:01
  TRACK 52 AUDIO
    TITLE "0:"
    INDEX 01 01:23:57
  TRACK 53 AUDIO
    TITLE "5:cjc172_3553"
    INDEX 01 01:23:63
  TRACK 54 AUDIO
    TITLE "0:"
    INDEX 01 01:29:65
  TRACK 55 AUDIO
    TITLE "3:cjc172_3554"
    INDEX 01 01:30:33
  TRACK 56 AUDIO
    TITLE "0:"
    INDEX 01 01:31:46
  TRACK 57 AUDIO
    TITLE "4:cjc172_3555"
    INDEX 01 01:31:56
  TRACK 58 AUDIO
    TITLE "0:"
    INDEX 01 01:33:71
  TRACK 59 AUDIO
    TITLE "5:cjc172_3556"
    INDEX 01 01:34:02
  TRACK 60 AUDIO
    TITLE "0:"
    INDEX 01 01:38:56
